<?xml version="1.0" encoding="utf-8" standalone="no"?>
<!DOCTYPE svg PUBLIC "-//W3C//DTD SVG 1.1//EN"
  "http://www.w3.org/Graphics/SVG/1.1/DTD/svg11.dtd">
<svg xmlns:xlink="http://www.w3.org/1999/xlink" width="352.7pt" height="239.66pt" viewBox="0 0 352.7 239.66" xmlns="http://www.w3.org/2000/svg" version="1.1">
 <metadata>
  <rdf:RDF xmlns:dc="http://purl.org/dc/elements/1.1/" xmlns:cc="http://creativecommons.org/ns#" xmlns:rdf="http://www.w3.org/1999/02/22-rdf-syntax-ns#">
   <cc:Work>
    <dc:type rdf:resource="http://purl.org/dc/dcmitype/StillImage"/>
    <dc:date>2022-05-06T12:01:44.406078</dc:date>
    <dc:format>image/svg+xml</dc:format>
    <dc:creator>
     <cc:Agent>
      <dc:title>Matplotlib v3.5.1, https://matplotlib.org/</dc:title>
     </cc:Agent>
    </dc:creator>
   </cc:Work>
  </rdf:RDF>
 </metadata>
 <defs>
  <style type="text/css">*{stroke-linejoin: round; stroke-linecap: butt}</style>
 </defs>
 <g id="figure_1">
  <g id="patch_1">
   <path d="M 0 239.66 
L 352.7 239.66 
L 352.7 0 
L 0 0 
z
" style="fill: #ffffff"/>
  </g>
  <g id="axes_1">
   <g id="patch_2">
    <path d="M 10.7 228.96 
L 345.5 228.96 
L 345.5 7.2 
L 10.7 7.2 
z
" style="fill: #ffffff"/>
   </g>
   <g id="matplotlib.axis_1"/>
   <g id="matplotlib.axis_2"/>
   <g id="patch_3">
    <path d="M 10.7 228.96 
L 10.7 7.2 
" style="fill: none; stroke: #000000; stroke-width: 0.8; stroke-linejoin: miter; stroke-linecap: square"/>
   </g>
   <g id="patch_4">
    <path d="M 345.5 228.96 
L 345.5 7.2 
" style="fill: none; stroke: #000000; stroke-width: 0.8; stroke-linejoin: miter; stroke-linecap: square"/>
   </g>
   <g id="patch_5">
    <path d="M 10.7 228.96 
L 345.5 228.96 
" style="fill: none; stroke: #000000; stroke-width: 0.8; stroke-linejoin: miter; stroke-linecap: square"/>
   </g>
   <g id="patch_6">
    <path d="M 10.7 7.2 
L 345.5 7.2 
" style="fill: none; stroke: #000000; stroke-width: 0.8; stroke-linejoin: miter; stroke-linecap: square"/>
   </g>
   <g id="text_1">
    <!-- placeholder -->
    <g style="fill: #ff0000" transform="translate(65.86625 130.08)scale(0.48 -0.48)">
     <defs>
      <path id="Cmss10-70" d="M 513 -1241 
L 513 2841 
L 1019 2841 
L 1019 2541 
Q 1469 2913 2113 2913 
Q 2428 2913 2648 2672 
Q 2869 2431 2976 2082 
Q 3084 1734 3084 1422 
Q 3084 1081 2942 728 
Q 2800 375 2533 151 
Q 2266 -72 1906 -72 
Q 1663 -72 1436 23 
Q 1209 119 1038 281 
L 1038 -1241 
L 513 -1241 
z
M 1038 744 
Q 1138 559 1288 453 
Q 1438 347 1631 347 
Q 1906 347 2117 501 
Q 2328 656 2443 909 
Q 2559 1163 2559 1422 
Q 2559 1825 2325 2151 
Q 2091 2478 1709 2478 
Q 1581 2478 1451 2434 
Q 1322 2391 1219 2314 
Q 1116 2238 1038 2125 
L 1038 744 
z
" transform="scale(0.015625)"/>
      <path id="Cmss10-6c" d="M 506 0 
L 506 4441 
L 1013 4441 
L 1013 0 
L 506 0 
z
" transform="scale(0.015625)"/>
      <path id="Cmss10-61" d="M 972 -72 
Q 766 -72 605 48 
Q 444 169 356 359 
Q 269 550 269 763 
Q 269 1072 580 1256 
Q 891 1441 1305 1511 
Q 1719 1581 2041 1581 
L 2041 1881 
Q 2041 2128 1900 2337 
Q 1759 2547 1522 2547 
Q 1225 2547 1000 2473 
Q 775 2400 531 2222 
L 494 2675 
Q 753 2825 987 2887 
Q 1222 2950 1522 2950 
Q 1806 2950 2047 2801 
Q 2288 2653 2427 2408 
Q 2566 2163 2566 1881 
L 2566 0 
L 2059 0 
L 2059 238 
Q 1859 84 1576 6 
Q 1294 -72 972 -72 
z
M 756 763 
Q 756 566 937 456 
Q 1119 347 1331 347 
Q 1600 347 1820 467 
Q 2041 588 2041 831 
L 2041 1228 
Q 1641 1228 1198 1125 
Q 756 1022 756 763 
z
" transform="scale(0.015625)"/>
      <path id="Cmss10-63" d="M 1594 -72 
Q 1309 -72 1053 50 
Q 797 172 609 386 
Q 422 600 320 870 
Q 219 1141 219 1422 
Q 219 1713 320 1988 
Q 422 2263 608 2480 
Q 794 2697 1044 2823 
Q 1294 2950 1594 2950 
Q 1934 2950 2136 2897 
Q 2338 2844 2625 2675 
L 2547 2228 
Q 2288 2403 2102 2459 
Q 1916 2516 1594 2516 
Q 1322 2516 1126 2355 
Q 931 2194 837 1945 
Q 744 1697 744 1422 
Q 744 1163 842 919 
Q 941 675 1134 520 
Q 1328 366 1594 366 
Q 1894 366 2139 448 
Q 2384 531 2619 697 
L 2656 250 
Q 2513 106 2183 17 
Q 1853 -72 1594 -72 
z
" transform="scale(0.015625)"/>
      <path id="Cmss10-65" d="M 1594 -72 
Q 1300 -72 1044 51 
Q 788 175 602 390 
Q 416 606 314 882 
Q 213 1159 213 1441 
Q 213 1806 373 2159 
Q 534 2513 831 2731 
Q 1128 2950 1503 2950 
Q 2116 2950 2386 2500 
Q 2656 2050 2656 1403 
L 684 1403 
Q 684 1150 801 904 
Q 919 659 1130 503 
Q 1341 347 1594 347 
Q 2150 347 2584 691 
L 2625 256 
Q 2491 122 2162 25 
Q 1834 -72 1594 -72 
z
M 722 1778 
L 2259 1778 
Q 2209 2103 2015 2318 
Q 1822 2534 1503 2534 
Q 1316 2534 1150 2426 
Q 984 2319 876 2145 
Q 769 1972 722 1778 
z
" transform="scale(0.015625)"/>
      <path id="Cmss10-68" d="M 506 0 
L 506 4441 
L 1013 4441 
L 1013 2472 
Q 1181 2675 1420 2794 
Q 1659 2913 1913 2913 
Q 2391 2913 2594 2645 
Q 2797 2378 2797 1881 
L 2797 0 
L 2272 0 
L 2272 1881 
Q 2272 2200 2114 2348 
Q 1956 2497 1638 2497 
Q 1425 2497 1289 2355 
Q 1153 2213 1092 2005 
Q 1031 1797 1031 1588 
L 1031 0 
L 506 0 
z
" transform="scale(0.015625)"/>
      <path id="Cmss10-6f" d="M 1600 -72 
Q 1203 -72 878 133 
Q 553 338 365 680 
Q 178 1022 178 1403 
Q 178 1697 284 1976 
Q 391 2256 580 2476 
Q 769 2697 1033 2823 
Q 1297 2950 1600 2950 
Q 1900 2950 2161 2825 
Q 2422 2700 2615 2476 
Q 2809 2253 2912 1975 
Q 3016 1697 3016 1403 
Q 3016 1022 2830 680 
Q 2644 338 2317 133 
Q 1991 -72 1600 -72 
z
M 1600 366 
Q 1894 366 2095 525 
Q 2297 684 2394 940 
Q 2491 1197 2491 1478 
Q 2491 1753 2389 1995 
Q 2288 2238 2086 2386 
Q 1884 2534 1600 2534 
Q 1313 2534 1111 2387 
Q 909 2241 806 1997 
Q 703 1753 703 1478 
Q 703 1278 756 1079 
Q 809 881 926 714 
Q 1044 547 1214 456 
Q 1384 366 1600 366 
z
" transform="scale(0.015625)"/>
      <path id="Cmss10-64" d="M 1300 -72 
Q 959 -72 712 161 
Q 466 394 342 741 
Q 219 1088 219 1422 
Q 219 1675 291 1933 
Q 363 2191 500 2414 
Q 638 2638 847 2775 
Q 1056 2913 1319 2913 
Q 1591 2913 1842 2822 
Q 2094 2731 2284 2572 
L 2284 4441 
L 2791 4441 
L 2791 0 
L 2266 0 
L 2266 319 
Q 2059 128 1818 28 
Q 1578 -72 1300 -72 
z
M 1594 347 
Q 1806 347 1984 465 
Q 2163 584 2266 781 
L 2266 2163 
Q 2166 2316 2006 2406 
Q 1847 2497 1672 2497 
Q 1372 2497 1161 2350 
Q 950 2203 847 1958 
Q 744 1713 744 1422 
Q 744 981 959 664 
Q 1175 347 1594 347 
z
" transform="scale(0.015625)"/>
      <path id="Cmss10-72" d="M 513 0 
L 513 2881 
L 984 2881 
L 984 2328 
Q 1109 2503 1287 2637 
Q 1466 2772 1670 2842 
Q 1875 2913 2094 2913 
L 2094 2456 
Q 1809 2456 1561 2315 
Q 1313 2175 1166 1933 
Q 1019 1691 1019 1403 
L 1019 0 
L 513 0 
z
" transform="scale(0.015625)"/>
     </defs>
     <use xlink:href="#Cmss10-70"/>
     <use xlink:href="#Cmss10-6c" x="51.611328"/>
     <use xlink:href="#Cmss10-61" x="75.390625"/>
     <use xlink:href="#Cmss10-63" x="123.388672"/>
     <use xlink:href="#Cmss10-65" x="167.773438"/>
     <use xlink:href="#Cmss10-68" x="212.158203"/>
     <use xlink:href="#Cmss10-6f" x="263.769531"/>
     <use xlink:href="#Cmss10-6c" x="313.769531"/>
     <use xlink:href="#Cmss10-64" x="337.548828"/>
     <use xlink:href="#Cmss10-65" x="389.160156"/>
     <use xlink:href="#Cmss10-72" x="433.544922"/>
    </g>
   </g>
  </g>
 </g>
</svg>
